# xmcd
#
# Track frame offsets:
#  150
#  36975
#  93880
#  106525
#  139262
#  162927
#  193450
#  221265
#  227837
#  245452
#  295097
#  317352
#
# Disc length: 4641 seconds
#
# Revision: 0
# Processed by: cddbd v1.4PL0 Copyright (c) Steve Scherf et al.
# Submitted via: AltoMP3_Maker 3.0
#
DISCID=a1121f0c
DTITLE=Philipp Fankhauser and CBB - Thun - San Francisco
DYEAR=1900
DGENRE=
TTITLE0=Thun - San Francisco
TTITLE1=2 O'Clock Blues
TTITLE2=Wella Wella Baby La
TTITLE3=Black Cat Bone
TTITLE4=Down In The Valley
TTITLE5=Chicago By Night
TTITLE6=Got My Mojo Working
TTITLE7=Introduction
TTITLE8=Evil Gal Blues
TTITLE9=Blue Blue Blues - My Kind Of Blues
TTITLE10=Something You Got
TTITLE11=Pie In The Sky
EXTD=
EXTT0=
EXTT1=
EXTT2=
EXTT3=
EXTT4=
EXTT5=
EXTT6=
EXTT7=
EXTT8=
EXTT9=
EXTT10=
EXTT11=
PLAYORDER=
